<svg xmlns="http://www.w3.org/2000/svg" viewBox="0 0 24 24" width="24" height="24" aria-hidden="true">
  <title>Telegram</title>
  <path fill="#229ED9" d="M11.944 0C5.348 0 0 5.348 0 11.944c0 6.596 5.348 11.944 11.944 11.944s11.944-5.348 11.944-11.944C23.888 5.348 18.54 0 11.944 0zm5.483 8.199l-2.558 12.078c-.193.868-.708 1.079-1.434.672l-3.978-2.931-1.92 1.848c-.212.212-.389.389-.8.389l.286-4.062 7.391-6.676c.321-.286-.071-.446-.5-.161l-9.133 5.758-3.938-1.232c-.854-.267-.868-.854.178-1.267l15.411-5.954c.708-.252 1.327.161 1.1 1.267z"/>
</svg>


